<?xml version="1.0" encoding="UTF-8" standalone="no"?>
<!-- Created with Inkscape (http://www.inkscape.org/) -->

<svg
   xmlns:dc="http://purl.org/dc/elements/1.1/"
   xmlns:cc="http://creativecommons.org/ns#"
   xmlns:rdf="http://www.w3.org/1999/02/22-rdf-syntax-ns#"
   xmlns:svg="http://www.w3.org/2000/svg"
   xmlns="http://www.w3.org/2000/svg"
   xmlns:sodipodi="http://sodipodi.sourceforge.net/DTD/sodipodi-0.dtd"
   xmlns:inkscape="http://www.inkscape.org/namespaces/inkscape"
   id="svg2"
   version="1.1"
   inkscape:version="0.91 r13725"
   xml:space="preserve"
   width="297mm"
   height="210mm"
   viewBox="0 0 1052.3622 744.09449"
   sodipodi:docname="Evaclite Blade Change.svg"
   inkscape:export-filename="/home/amunizp/Documents/C4AD/jobs/SpongeCreative/14-EmergencyExit/BiggerArrow.png"
   inkscape:export-xdpi="244.41"
   inkscape:export-ydpi="244.41"><metadata
     id="metadata8"><rdf:RDF><cc:Work
         rdf:about=""><dc:format>image/svg+xml</dc:format><dc:type
           rdf:resource="http://purl.org/dc/dcmitype/StillImage" /><dc:title></dc:title></cc:Work></rdf:RDF></metadata><defs
     id="defs6"><clipPath
       clipPathUnits="userSpaceOnUse"
       id="clipPath40"><path
         d="m 56.723,48.233 700.16,0 0,349.18 -700.16,0 0,-349.18 z"
         id="path42"
         inkscape:connector-curvature="0"
         style="clip-rule:evenodd" /></clipPath><clipPath
       clipPathUnits="userSpaceOnUse"
       id="clipPath52"><path
         d="m -0.0019751,0.0020142 813.5999951,0 0,467.7599958 -813.5999951,0 0,-467.7599958 z"
         id="path54"
         inkscape:connector-curvature="0"
         style="clip-rule:evenodd" /></clipPath><clipPath
       clipPathUnits="userSpaceOnUse"
       id="clipPath62"><path
         d="M 1.2124e-5,0 813.60001,0 l 0,467.76 -813.599997876,0 0,-467.76 z"
         id="path64"
         inkscape:connector-curvature="0"
         style="clip-rule:evenodd" /></clipPath><clipPath
       clipPathUnits="userSpaceOnUse"
       id="clipPath70"><path
         d="M 1.2124e-5,0 813.60001,0 l 0,467.76 -813.599997876,0 0,-467.76 z"
         id="path72"
         inkscape:connector-curvature="0"
         style="clip-rule:evenodd" /></clipPath><clipPath
       clipPathUnits="userSpaceOnUse"
       id="clipPath82"><path
         d="M 1.2124e-5,0 813.60001,0 l 0,467.76 -813.599997876,0 0,-467.76 z"
         id="path84"
         inkscape:connector-curvature="0"
         style="clip-rule:evenodd" /></clipPath><clipPath
       clipPathUnits="userSpaceOnUse"
       id="clipPath94"><path
         d="M 1.2124e-5,0 813.60001,0 l 0,467.76 -813.599997876,0 0,-467.76 z"
         id="path96"
         inkscape:connector-curvature="0"
         style="clip-rule:evenodd" /></clipPath><clipPath
       clipPathUnits="userSpaceOnUse"
       id="clipPath102"><path
         d="M 1.2124e-5,0 813.60001,0 l 0,467.76 -813.599997876,0 0,-467.76 z"
         id="path104"
         inkscape:connector-curvature="0"
         style="clip-rule:evenodd" /></clipPath><clipPath
       clipPathUnits="userSpaceOnUse"
       id="clipPath114"><path
         d="M 1.2124e-5,0 813.60001,0 l 0,467.76 -813.599997876,0 0,-467.76 z"
         id="path116"
         inkscape:connector-curvature="0"
         style="clip-rule:evenodd" /></clipPath><clipPath
       clipPathUnits="userSpaceOnUse"
       id="clipPath126"><path
         d="M 1.2124e-5,0 813.60001,0 l 0,467.76 -813.599997876,0 0,-467.76 z"
         id="path128"
         inkscape:connector-curvature="0"
         style="clip-rule:evenodd" /></clipPath><clipPath
       clipPathUnits="userSpaceOnUse"
       id="clipPath138"><path
         d="M 1.2124e-5,0 813.60001,0 l 0,467.76 -813.599997876,0 0,-467.76 z"
         id="path140"
         inkscape:connector-curvature="0"
         style="clip-rule:evenodd" /></clipPath><clipPath
       clipPathUnits="userSpaceOnUse"
       id="clipPath150"><path
         d="M 1.2124e-5,0 813.60001,0 l 0,467.76 -813.599997876,0 0,-467.76 z"
         id="path152"
         inkscape:connector-curvature="0"
         style="clip-rule:evenodd" /></clipPath><clipPath
       clipPathUnits="userSpaceOnUse"
       id="clipPath162"><path
         d="M 1.2124e-5,0 813.60001,0 l 0,467.76 -813.599997876,0 0,-467.76 z"
         id="path164"
         inkscape:connector-curvature="0"
         style="clip-rule:evenodd" /></clipPath><clipPath
       clipPathUnits="userSpaceOnUse"
       id="clipPath174"><path
         d="M 1.2124e-5,0 813.60001,0 l 0,467.76 -813.599997876,0 0,-467.76 z"
         id="path176"
         inkscape:connector-curvature="0"
         style="clip-rule:evenodd" /></clipPath><clipPath
       clipPathUnits="userSpaceOnUse"
       id="clipPath186"><path
         d="M 1.2124e-5,0 813.60001,0 l 0,467.76 -813.599997876,0 0,-467.76 z"
         id="path188"
         inkscape:connector-curvature="0"
         style="clip-rule:evenodd" /></clipPath><clipPath
       clipPathUnits="userSpaceOnUse"
       id="clipPath198"><path
         d="M 1.2124e-5,0 813.60001,0 l 0,467.76 -813.599997876,0 0,-467.76 z"
         id="path200"
         inkscape:connector-curvature="0"
         style="clip-rule:evenodd" /></clipPath><clipPath
       clipPathUnits="userSpaceOnUse"
       id="clipPath210"><path
         d="M 1.2124e-5,0 813.60001,0 l 0,467.76 -813.599997876,0 0,-467.76 z"
         id="path212"
         inkscape:connector-curvature="0"
         style="clip-rule:evenodd" /></clipPath><clipPath
       clipPathUnits="userSpaceOnUse"
       id="clipPath222"><path
         d="m -0.0019751,0.0020142 813.5999951,0 0,467.7599958 -813.5999951,0 0,-467.7599958 z"
         id="path224"
         inkscape:connector-curvature="0"
         style="clip-rule:evenodd" /></clipPath><clipPath
       clipPathUnits="userSpaceOnUse"
       id="clipPath232"><path
         d="M 1.2124e-5,0 813.60001,0 l 0,467.76 -813.599997876,0 0,-467.76 z"
         id="path234"
         inkscape:connector-curvature="0"
         style="clip-rule:evenodd" /></clipPath><clipPath
       clipPathUnits="userSpaceOnUse"
       id="clipPath244"><path
         d="M 1.2124e-5,0 813.60001,0 l 0,467.76 -813.599997876,0 0,-467.76 z"
         id="path246"
         inkscape:connector-curvature="0"
         style="clip-rule:evenodd" /></clipPath><clipPath
       clipPathUnits="userSpaceOnUse"
       id="clipPath254"><path
         d="M 1.2124e-5,0 813.60001,0 l 0,467.76 -813.599997876,0 0,-467.76 z"
         id="path256"
         inkscape:connector-curvature="0"
         style="clip-rule:evenodd" /></clipPath><clipPath
       clipPathUnits="userSpaceOnUse"
       id="clipPath266"><path
         d="M 1.2124e-5,0 813.60001,0 l 0,467.76 -813.599997876,0 0,-467.76 z"
         id="path268"
         inkscape:connector-curvature="0"
         style="clip-rule:evenodd" /></clipPath><clipPath
       clipPathUnits="userSpaceOnUse"
       id="clipPath276"><path
         d="M 1.2124e-5,0 813.60001,0 l 0,467.76 -813.599997876,0 0,-467.76 z"
         id="path278"
         inkscape:connector-curvature="0"
         style="clip-rule:evenodd" /></clipPath><clipPath
       clipPathUnits="userSpaceOnUse"
       id="clipPath288"><path
         d="M 1.2124e-5,0 813.60001,0 l 0,467.76 -813.599997876,0 0,-467.76 z"
         id="path290"
         inkscape:connector-curvature="0"
         style="clip-rule:evenodd" /></clipPath><clipPath
       clipPathUnits="userSpaceOnUse"
       id="clipPath296"><path
         d="M 1.2124e-5,0 813.60001,0 l 0,467.76 -813.599997876,0 0,-467.76 z"
         id="path298"
         inkscape:connector-curvature="0"
         style="clip-rule:evenodd" /></clipPath><clipPath
       clipPathUnits="userSpaceOnUse"
       id="clipPath308"><path
         d="M 1.2124e-5,0 813.60001,0 l 0,467.76 -813.599997876,0 0,-467.76 z"
         id="path310"
         inkscape:connector-curvature="0"
         style="clip-rule:evenodd" /></clipPath></defs><sodipodi:namedview
     pagecolor="#ffffff"
     bordercolor="#666666"
     borderopacity="1"
     objecttolerance="10"
     gridtolerance="10"
     guidetolerance="10"
     inkscape:pageopacity="0"
     inkscape:pageshadow="2"
     inkscape:window-width="1366"
     inkscape:window-height="719"
     id="namedview4"
     showgrid="false"
     inkscape:zoom="0.28540653"
     inkscape:cx="457.59588"
     inkscape:cy="4.4475968"
     inkscape:window-x="0"
     inkscape:window-y="27"
     inkscape:window-maximized="1"
     inkscape:current-layer="g10"
     units="mm" /><g
     id="g10"
     inkscape:groupmode="layer"
     inkscape:label="Evaclite Blade dimensions"
     transform="matrix(1.25,0,0,-1.25,0,744.09448)"><g
       id="g58"><g
         id="g60"
         clip-path="url(#clipPath62)" /></g><g
       id="g78"><g
         id="g80"
         clip-path="url(#clipPath82)" /></g><g
       id="g90"><g
         id="g92"
         clip-path="url(#clipPath94)" /></g><g
       id="g110"><g
         id="g112"
         clip-path="url(#clipPath114)" /></g><g
       id="g134"><g
         id="g136"
         clip-path="url(#clipPath138)" /></g><g
       id="g206"><g
         id="g208"
         clip-path="url(#clipPath210)" /></g><g
       id="g240"><g
         id="g242"
         clip-path="url(#clipPath244)" /></g><g
       id="g262"><g
         id="g264"
         clip-path="url(#clipPath266)" /></g><g
       id="g284"><g
         id="g286"
         clip-path="url(#clipPath288)" /></g><g
       id="g304"><g
         id="g306"
         clip-path="url(#clipPath308)" /></g><g
       id="g17175"
       transform="matrix(-1,0,0,1,803.6221,62.362215)"><g
         id="g17157"><rect
           style="opacity:1;fill:#00af66;fill-opacity:1;stroke:none;stroke-width:2;stroke-linecap:round;stroke-linejoin:round;stroke-miterlimit:4;stroke-dasharray:none;stroke-opacity:1"
           id="rect4768"
           width="708.66144"
           height="357.16534"
           x="-737.00793"
           y="-413.85825"
           transform="scale(-1,-1)" /><g
           id="g4524"
           transform="matrix(0.71023248,0,0,0.71023181,-84.545815,-307.44725)"><path
             sodipodi:nodetypes="ccccccscccc"
             inkscape:connector-curvature="0"
             id="path4766"
             d="m 546.25159,586.77016 -35.58344,-40.89317 -271.89396,-1.24169 59.30573,49.43403 56.56854,45.61979 -56.56854,16.42313 -38.32219,4.75865 c -19.30618,2.39736 14.5999,41.77353 14.5999,41.77353 l 5.47437,6.38678 32.85222,1.35962 z"
             style="fill:#ffffff;fill-opacity:1;fill-rule:evenodd;stroke:none;stroke-width:1px;stroke-linecap:butt;stroke-linejoin:miter;stroke-opacity:1" /><rect
             transform="scale(-1,-1)"
             y="-983.66241"
             x="-547.16394"
             height="395.9798"
             width="249.08406"
             id="rect4764"
             style="opacity:1;fill:#ffffff;fill-opacity:1;stroke:none;stroke-width:2;stroke-linecap:round;stroke-linejoin:round;stroke-miterlimit:4;stroke-dasharray:none;stroke-opacity:1" /><path
             inkscape:connector-curvature="0"
             id="path4758"
             d="m 473.32721,945.59774 a 31.075434,30.551794 0 0 0 31.075,-30.55156 31.075434,30.551794 0 0 0 -31.075,-30.55157 31.075434,30.551794 0 0 0 -31.075,30.55157 31.075434,30.551794 0 0 0 31.075,30.55156 z M 428.8944,880.48836 c 17.01988,0.11375 38.02465,-0.86674 45.12656,-5.94062 19.01915,-13.58807 45.89063,-59.55938 45.89063,-59.55938 l 53.57656,-0.38906 -1.18125,-31.78281 -63.46406,0.11874 -33.75781,38.32031 -28.68907,-53.57656 72.48438,-162.66093 -37.02031,-1.69375 c 0,0 -7.98371,-1.26861 -16.03126,12.38124 -8.04753,13.64986 -54.61249,129.82188 -54.61249,129.82188 0,0 -4.79938,-60.64098 -14.8672,-74.5625 -10.0678,-13.92151 -17.98905,-10.89531 -17.98905,-10.89531 -10.44007,-1.58181 -114.03907,7.90313 -114.03907,7.90313 0,0 9.90941,26.69653 22.79376,31.02187 12.3906,4.15958 74.8328,-3.65 74.8328,-3.65 l 10.03594,83.02813 34.67188,67.51718 -36.49688,0.9125 c 0,0 -24.33779,-45.87895 -37.67969,-48.2 -13.34189,-2.32104 -16.75833,6.49307 -18.22031,12.91876 -1.46198,6.42568 8.45626,17.94687 8.45626,17.94687 0,0 27.29316,49.49717 34.67031,50.18125 3.55828,0.32996 47.44531,0 47.44531,0 0,0 10.82638,0.75059 24.06406,0.83906 z"
             style="opacity:1;fill:#00af66;fill-opacity:1;stroke:none;stroke-width:2.03367329;stroke-linecap:round;stroke-linejoin:round;stroke-miterlimit:4;stroke-dasharray:none;stroke-opacity:1" /><path
             sodipodi:nodetypes="czccc"
             inkscape:connector-curvature="0"
             id="path4762"
             d="m 509.75576,594.06933 c -4.56199,-0.9124 -24.49002,5.95261 -42.49208,-1.30293 -18.00205,-7.25554 -52.1366,-47.96645 -52.1366,-47.96645 l 56.17758,0 z"
             style="fill:#00af66;fill-opacity:1;fill-rule:evenodd;stroke:none;stroke-width:1px;stroke-linecap:butt;stroke-linejoin:miter;stroke-opacity:1" /></g></g><path
         inkscape:connector-curvature="0"
         id="path17127"
         d="m 354.96904,271.9432 240.81712,0 -90.18254,90.18254 103.06577,0 L 730.56448,237.2576 603.7143,109.41642 l -98.11068,-0.99102 88.20051,93.1556 -239.8261,0 z"
         style="fill:#ffffff;fill-opacity:1;fill-rule:evenodd;stroke:none;stroke-width:0.80000001px;stroke-linecap:butt;stroke-linejoin:miter;stroke-opacity:1" /></g></g></svg>
